<svg xmlns="http://www.w3.org/2000/svg" viewBox="0 0 600 400" role="img" aria-label="Happy dog and cat at a pet store">
  <defs>
    <linearGradient id="bg" x1="0%" y1="0%" x2="100%" y2="100%">
      <stop offset="0%" style="stop-color:#d8f3dc"/>
      <stop offset="100%" style="stop-color:#b7e4c7"/>
    </linearGradient>
  </defs>
  <rect width="600" height="400" fill="url(#bg)" rx="12"/>
  <!-- Dog -->
  <ellipse cx="200" cy="280" rx="90" ry="30" fill="#c9a66b" opacity="0.3"/>
  <ellipse cx="200" cy="230" rx="70" ry="55" fill="#d4a574"/>
  <circle cx="200" cy="175" r="45" fill="#d4a574"/>
  <ellipse cx="165" cy="155" rx="18" ry="30" fill="#c4956a" transform="rotate(-20 165 155)"/>
  <ellipse cx="235" cy="155" rx="18" ry="30" fill="#c4956a" transform="rotate(20 235 155)"/>
  <circle cx="185" cy="168" r="6" fill="#2b2d42"/>
  <circle cx="215" cy="168" r="6" fill="#2b2d42"/>
  <circle cx="187" cy="166" r="2" fill="#fff"/>
  <circle cx="217" cy="166" r="2" fill="#fff"/>
  <ellipse cx="200" cy="185" rx="10" ry="7" fill="#8b6914"/>
  <path d="M190 195 Q200 205 210 195" stroke="#8b6914" stroke-width="2" fill="none"/>
  <ellipse cx="155" cy="250" rx="12" ry="35" fill="#c4956a" transform="rotate(15 155 250)"/>
  <ellipse cx="245" cy="250" rx="12" ry="35" fill="#c4956a" transform="rotate(-15 245 250)"/>
  <!-- Cat -->
  <ellipse cx="420" cy="285" rx="70" ry="25" fill="#adb5bd" opacity="0.3"/>
  <ellipse cx="420" cy="240" rx="55" ry="45" fill="#6c757d"/>
  <circle cx="420" cy="195" r="38" fill="#6c757d"/>
  <polygon points="395,165 385,130 410,155" fill="#6c757d"/>
  <polygon points="445,165 455,130 430,155" fill="#6c757d"/>
  <polygon points="397,163 392,138 407,158" fill="#f4a261"/>
  <polygon points="443,163 448,138 433,158" fill="#f4a261"/>
  <ellipse cx="405" cy="190" rx="8" ry="10" fill="#2b2d42"/>
  <ellipse cx="435" cy="190" rx="8" ry="10" fill="#2b2d42"/>
  <ellipse cx="407" cy="188" rx="2.5" ry="3" fill="#fff"/>
  <ellipse cx="437" cy="188" rx="2.5" ry="3" fill="#fff"/>
  <path d="M415 200 L420 205 L425 200" stroke="#e76f51" stroke-width="2" fill="none"/>
  <line x1="395" y1="200" x2="370" y2="195" stroke="#adb5bd" stroke-width="1.5"/>
  <line x1="395" y1="205" x2="368" y2="208" stroke="#adb5bd" stroke-width="1.5"/>
  <line x1="445" y1="200" x2="470" y2="195" stroke="#adb5bd" stroke-width="1.5"/>
  <line x1="445" y1="205" x2="472" y2="208" stroke="#adb5bd" stroke-width="1.5"/>
  <path d="M400 275 Q420 290 440 275" stroke="#6c757d" stroke-width="8" fill="none" stroke-linecap="round"/>
  <!-- Paw prints -->
  <g fill="#2d6a4f" opacity="0.2">
    <ellipse cx="80" cy="80" rx="8" ry="10" transform="rotate(-20 80 80)"/>
    <circle cx="68" cy="65" r="4"/><circle cx="78" cy="60" r="4"/>
    <circle cx="88" cy="62" r="4"/><circle cx="92" cy="72" r="4"/>
    <ellipse cx="520" cy="60" rx="8" ry="10" transform="rotate(15 520 60)"/>
    <circle cx="508" cy="45" r="4"/><circle cx="518" cy="40" r="4"/>
    <circle cx="528" cy="42" r="4"/><circle cx="532" cy="52" r="4"/>
  </g>
  <!-- Store sign -->
  <rect x="210" y="50" width="180" height="50" rx="8" fill="#c41e3a"/>
  <text x="300" y="82" text-anchor="middle" fill="#fff" font-family="sans-serif" font-size="14" font-weight="bold">PAW PARADISE</text>
</svg>
