<svg xmlns="http://www.w3.org/2000/svg" viewBox="0 0 400 200" role="img" aria-label="Aquarium starter kit">
  <rect width="400" height="200" fill="#e3f2fd"/>
  <rect x="100" y="50" width="200" height="120" rx="6" fill="#90caf9" opacity="0.3" stroke="#42a5f5" stroke-width="3"/>
  <rect x="105" y="55" width="190" height="100" rx="4" fill="#64b5f6" opacity="0.4"/>
  <!-- Fish -->
  <ellipse cx="180" cy="100" rx="20" ry="12" fill="#ff7043"/>
  <polygon points="155,100 145,92 145,108" fill="#ff7043"/>
  <circle cx="192" cy="97" r="3" fill="#2b2d42"/>
  <ellipse cx="250" cy="120" rx="15" ry="9" fill="#ffa726"/>
  <polygon points="232,120 224,114 224,126" fill="#ffa726"/>
  <circle cx="258" cy="118" r="2" fill="#2b2d42"/>
  <!-- Plants -->
  <path d="M130 155 Q125 120 135 100 Q140 120 130 155" fill="#66bb6a"/>
  <path d="M270 155 Q275 115 265 95 Q260 115 270 155" fill="#43a047"/>
  <!-- Bubbles -->
  <circle cx="150" cy="75" r="4" fill="#fff" opacity="0.5"/>
  <circle cx="165" cy="65" r="3" fill="#fff" opacity="0.4"/>
  <circle cx="140" cy="60" r="2" fill="#fff" opacity="0.3"/>
  <text x="200" y="40" text-anchor="middle" fill="#1565c0" font-family="sans-serif" font-size="11" font-weight="bold">AQUARIUM KIT</text>
</svg>
